# xmcd
#
# Track frame offsets:
#	150
#	27337
#	68695
#	115551
#	151936
#	198181
#	225939
#
# Disc length: 3758 seconds
# Revision: 0
# Processed by: cddbd v1.5.2PL0 Copyright (c) Steve Scherf et al.
# Submitted via: dBpowerAMP V12.0
#
DISCID=450eac07
DTITLE=Matt Schofield - Live At The Jazz Cafe, 20th April 2005
DYEAR=2013
DGENRE=Blues
TTITLE0=All You Need
TTITLE1=Uncle Junior
TTITLE2=Lights Are On
TTITLE3=Travellin' South
TTITLE4=Cissy Strut
TTITLE5=On My Way
TTITLE6=It's Your Thing
EXTD=
EXTT0=
EXTT1=
EXTT2=
EXTT3=
EXTT4=
EXTT5=
EXTT6=
PLAYORDER=
